<svg xmlns="http://www.w3.org/2000/svg" viewBox="0 0 64 64" fill="none">
    <style>
        .stroke-theme {
            stroke: #003366;
        }

        .fill-theme {
            fill: #003366;
        }

        @media (prefers-color-scheme: dark) {
            .stroke-theme {
                stroke: #60a5fa;
            }

            .fill-theme {
                fill: #60a5fa;
            }
        }
    </style>
    <path class="stroke-theme" stroke-width="2" stroke-linecap="round" fill="none"
        d="M4 16 C20 16, 24 22, 32 32 C40 22, 44 16, 60 16" />
    <path class="stroke-theme" stroke-width="2" stroke-linecap="round" fill="none"
        d="M4 32 C20 32, 24 34, 32 42 C40 34, 44 32, 60 32" />
    <path class="stroke-theme" stroke-width="2" stroke-linecap="round" fill="none"
        d="M4 48 C20 48, 24 46, 32 50 C40 46, 44 48, 60 48" />
    <path class="stroke-theme" stroke-width="2" stroke-linecap="round" fill="none"
        d="M16 4 C16 20, 22 24, 32 32 C22 40, 16 44, 16 60" />
    <path class="stroke-theme" stroke-width="2" stroke-linecap="round" fill="none"
        d="M48 4 C48 20, 42 24, 32 32 C42 40, 48 44, 48 60" />
    <circle class="fill-theme" cx="32" cy="32" r="6" />
</svg>